<svg xmlns="http://www.w3.org/2000/svg" viewBox="0 0 64 64">
  <rect width="64" height="64" rx="12" fill="#3b82f6"/>
  <rect x="10" y="8" width="44" height="16" rx="4" fill="#1e3a5f"/>
  <text x="32" y="20" font-family="monospace" font-size="12" fill="#22c55e" text-anchor="middle" dominant-baseline="middle">123.45</text>
  <g fill="#1e40af">
    <rect x="10" y="28" width="9" height="9" rx="2"/>
    <rect x="22" y="28" width="9" height="9" rx="2"/>
    <rect x="34" y="28" width="9" height="9" rx="2"/>
    <rect x="46" y="28" width="9" height="9" rx="2"/>
    <rect x="10" y="40" width="9" height="9" rx="2"/>
    <rect x="22" y="40" width="9" height="9" rx="2"/>
    <rect x="34" y="40" width="9" height="9" rx="2"/>
    <rect x="46" y="40" width="9" height="9" rx="2"/>
    <rect x="10" y="52" width="9" height="9" rx="2"/>
    <rect x="22" y="52" width="9" height="9" rx="2"/>
    <rect x="34" y="52" width="9" height="9" rx="2"/>
  </g>
  <rect x="46" y="52" width="9" height="9" rx="2" fill="#22c55e"/>
  <g fill="white" font-family="Arial, sans-serif" font-size="7" text-anchor="middle" dominant-baseline="middle">
    <text x="14.5" y="33">7</text>
    <text x="26.5" y="33">8</text>
    <text x="38.5" y="33">9</text>
    <text x="50.5" y="33">/</text>
    <text x="14.5" y="45">4</text>
    <text x="26.5" y="45">5</text>
    <text x="38.5" y="45">6</text>
    <text x="50.5" y="45">x</text>
    <text x="14.5" y="57">1</text>
    <text x="26.5" y="57">2</text>
    <text x="38.5" y="57">3</text>
    <text x="50.5" y="57">=</text>
  </g>
</svg>
